<?xml version="1.0" encoding="UTF-8" standalone="no"?>
<svg
   xmlns:dc="http://purl.org/dc/elements/1.1/"
   xmlns:cc="http://web.resource.org/cc/"
   xmlns:rdf="http://www.w3.org/1999/02/22-rdf-syntax-ns#"
   xmlns:svg="http://www.w3.org/2000/svg"
   xmlns="http://www.w3.org/2000/svg"
   xmlns:sodipodi="http://sodipodi.sourceforge.net/DTD/sodipodi-0.dtd"
   xmlns:inkscape="http://www.inkscape.org/namespaces/inkscape"
   width="1061"
   x="0"
   y="0"
   height="757"
   id="/home/florian/Desktop/attack_wins_sequence"
   sodipodi:version="0.32"
   inkscape:version="0.45.1"
   sodipodi:docname="attack_wins_sequence.svg"
   inkscape:output_extension="org.inkscape.output.svg.inkscape"
   sodipodi:docbase="/programmering/widelands/doc/battle">
  <metadata
     id="metadata194">
    <rdf:RDF>
      <cc:Work
         rdf:about="">
        <dc:format>image/svg+xml</dc:format>
        <dc:type
           rdf:resource="http://purl.org/dc/dcmitype/StillImage" />
      </cc:Work>
    </rdf:RDF>
  </metadata>
  <defs
     id="defs192" />
  <sodipodi:namedview
     inkscape:window-height="480"
     inkscape:window-width="640"
     inkscape:pageshadow="2"
     inkscape:pageopacity="0.0"
     guidetolerance="10.0"
     gridtolerance="10.0"
     objecttolerance="10.0"
     borderopacity="1.0"
     bordercolor="#666666"
     pagecolor="#ffffff"
     id="base" />
  <rect
     width="1061"
     x="26"
     y="48"
     height="756"
     transform="translate(-26,-48)"
     style="stroke:rgb(0,0,0);stroke-width:0;fill:rgb(255,255,255);"
     id="rect3" />
  <line
     transform="translate(-26,-48)"
     style="stroke:rgb(255,0,0);stroke-width:0.9;stroke-dasharray:18,6;fill:none;"
     y1="77"
     y2="262"
     x1="106"
     x2="106"
     id="line5" />
  <line
     transform="translate(-26,-48)"
     style="stroke:rgb(255,0,0);stroke-width:0.9;stroke-dasharray:18,6;fill:none;"
     y1="77"
     y2="804"
     x1="293"
     x2="293"
     id="line7" />
  <line
     transform="translate(-26,-48)"
     style="stroke:rgb(255,0,0);stroke-width:0.9;stroke-dasharray:18,6;fill:none;"
     y1="77"
     y2="302"
     x1="427"
     x2="427"
     id="line9" />
  <line
     transform="translate(-26,-48)"
     style="stroke:rgb(255,0,0);stroke-width:0.9;stroke-dasharray:18,6;fill:none;"
     y1="77"
     y2="613"
     x1="560"
     x2="560"
     id="line11" />
  <line
     transform="translate(-26,-48)"
     style="stroke:rgb(255,0,0);stroke-width:0.9;stroke-dasharray:18,6;fill:none;"
     y1="77"
     y2="770"
     x1="723"
     x2="723"
     id="line13" />
  <line
     transform="translate(-26,-48)"
     style="stroke:rgb(255,0,0);stroke-width:0.9;stroke-dasharray:18,6;fill:none;"
     y1="77"
     y2="634"
     x1="850"
     x2="850"
     id="line15" />
  <line
     transform="translate(-26,-48)"
     style="stroke:rgb(255,0,0);stroke-width:0.9;stroke-dasharray:18,6;fill:none;"
     y1="77"
     y2="804"
     x1="1002"
     x2="1002"
     id="line17" />
  <rect
     width="17"
     x="284"
     y="147"
     height="32"
     transform="translate(-26,-48)"
     style="stroke:rgb(0,0,0);stroke-width:0;fill:rgb(255,255,255);"
     id="rect19" />
  <rect
     width="17"
     x="284"
     y="147"
     height="32"
     transform="translate(-26,-48)"
     style="stroke:rgb(255,0,0);stroke-width:0.9;fill:none;"
     id="rect21" />
  <line
     transform="translate(-26,-48)"
     style="stroke:rgb(255,0,0);stroke-width:0.9;fill:none;"
     y1="151"
     y2="151"
     x1="106"
     x2="284"
     id="line23" />
  <polygon
     points="283 151 279 148 279 154"
     transform="translate(-26,-48)"
     style="stroke:rgb(255,0,0);stroke-width:0.9;fill:rgb(255,0,0);"
     id="polygon25" />
  <line
     transform="translate(-26,-48)"
     style="stroke:rgb(255,0,0);stroke-width:0.9;fill:rgb(255,0,0);"
     y1="176"
     y2="173"
     x1="106"
     x2="110"
     id="line27" />
  <line
     transform="translate(-26,-48)"
     style="stroke:rgb(255,0,0);stroke-width:0.9;fill:rgb(255,0,0);"
     y1="176"
     y2="179"
     x1="106"
     x2="110"
     id="line29" />
  <line
     transform="translate(-26,-48)"
     style="stroke:rgb(255,0,0);stroke-width:0.9;stroke-dasharray:3;fill:rgb(255,0,0);"
     y1="176"
     y2="176"
     x1="106"
     x2="284"
     id="line31" />
  <line
     transform="translate(-26,-48)"
     style="stroke:rgb(255,0,0);stroke-width:0.9;fill:none;"
     y1="238"
     y2="235"
     x1="425"
     x2="421"
     id="line33" />
  <line
     transform="translate(-26,-48)"
     style="stroke:rgb(255,0,0);stroke-width:0.9;fill:none;"
     y1="238"
     y2="241"
     x1="425"
     x2="421"
     id="line35" />
  <line
     transform="translate(-26,-48)"
     style="stroke:rgb(255,0,0);stroke-width:0.9;fill:none;"
     y1="238"
     y2="238"
     x1="107"
     x2="425"
     id="line37" />
  <line
     transform="translate(-26,-48)"
     style="stroke:rgb(255,0,0);stroke-width:0.9;fill:none;"
     y1="278"
     y2="275"
     x1="294"
     x2="298"
     id="line39" />
  <line
     transform="translate(-26,-48)"
     style="stroke:rgb(255,0,0);stroke-width:0.9;fill:none;"
     y1="278"
     y2="281"
     x1="294"
     x2="298"
     id="line41" />
  <line
     transform="translate(-26,-48)"
     style="stroke:rgb(255,0,0);stroke-width:0.9;fill:none;"
     y1="278"
     y2="278"
     x1="294"
     x2="425"
     id="line43" />
  <line
     transform="translate(-26,-48)"
     style="stroke:rgb(255,0,0);stroke-width:0.9;fill:none;"
     y1="327"
     y2="324"
     x1="558"
     x2="554"
     id="line45" />
  <line
     transform="translate(-26,-48)"
     style="stroke:rgb(255,0,0);stroke-width:0.9;fill:none;"
     y1="327"
     y2="330"
     x1="558"
     x2="554"
     id="line47" />
  <line
     transform="translate(-26,-48)"
     style="stroke:rgb(255,0,0);stroke-width:0.9;fill:none;"
     y1="327"
     y2="327"
     x1="294"
     x2="558"
     id="line49" />
  <line
     transform="translate(-26,-48)"
     style="stroke:rgb(255,0,0);stroke-width:0.9;fill:none;"
     y1="359"
     y2="356"
     x1="294"
     x2="298"
     id="line51" />
  <line
     transform="translate(-26,-48)"
     style="stroke:rgb(255,0,0);stroke-width:0.9;fill:none;"
     y1="359"
     y2="362"
     x1="294"
     x2="298"
     id="line53" />
  <line
     transform="translate(-26,-48)"
     style="stroke:rgb(255,0,0);stroke-width:0.9;fill:none;"
     y1="359"
     y2="359"
     x1="294"
     x2="558"
     id="line55" />
  <line
     transform="translate(-26,-48)"
     style="stroke:rgb(255,0,0);stroke-width:0.9;fill:none;"
     y1="451"
     y2="448"
     x1="721"
     x2="717"
     id="line57" />
  <line
     transform="translate(-26,-48)"
     style="stroke:rgb(255,0,0);stroke-width:0.9;fill:none;"
     y1="451"
     y2="454"
     x1="721"
     x2="717"
     id="line59" />
  <line
     transform="translate(-26,-48)"
     style="stroke:rgb(255,0,0);stroke-width:0.9;fill:none;"
     y1="451"
     y2="451"
     x1="294"
     x2="721"
     id="line61" />
  <line
     transform="translate(-26,-48)"
     style="stroke:rgb(255,0,0);stroke-width:0.9;fill:none;"
     y1="485"
     y2="482"
     x1="294"
     x2="298"
     id="line63" />
  <line
     transform="translate(-26,-48)"
     style="stroke:rgb(255,0,0);stroke-width:0.9;fill:none;"
     y1="485"
     y2="488"
     x1="294"
     x2="298"
     id="line65" />
  <line
     transform="translate(-26,-48)"
     style="stroke:rgb(255,0,0);stroke-width:0.9;fill:none;"
     y1="485"
     y2="485"
     x1="294"
     x2="721"
     id="line67" />
  <line
     transform="translate(-26,-48)"
     style="stroke:rgb(255,0,0);stroke-width:0.9;fill:none;"
     y1="547"
     y2="544"
     x1="848"
     x2="844"
     id="line69" />
  <line
     transform="translate(-26,-48)"
     style="stroke:rgb(255,0,0);stroke-width:0.9;fill:none;"
     y1="547"
     y2="550"
     x1="848"
     x2="844"
     id="line71" />
  <line
     transform="translate(-26,-48)"
     style="stroke:rgb(255,0,0);stroke-width:0.9;fill:none;"
     y1="547"
     y2="547"
     x1="294"
     x2="848"
     id="line73" />
  <line
     transform="translate(-26,-48)"
     style="stroke:rgb(255,0,0);stroke-width:0.9;fill:none;"
     y1="610"
     y2="607"
     x1="294"
     x2="298"
     id="line75" />
  <line
     transform="translate(-26,-48)"
     style="stroke:rgb(255,0,0);stroke-width:0.9;fill:none;"
     y1="610"
     y2="613"
     x1="294"
     x2="298"
     id="line77" />
  <line
     transform="translate(-26,-48)"
     style="stroke:rgb(255,0,0);stroke-width:0.9;fill:none;"
     y1="610"
     y2="610"
     x1="294"
     x2="848"
     id="line79" />
  <line
     transform="translate(-26,-48)"
     style="stroke:rgb(255,0,0);stroke-width:0.9;fill:none;"
     y1="780"
     y2="777"
     x1="1000"
     x2="996"
     id="line81" />
  <line
     transform="translate(-26,-48)"
     style="stroke:rgb(255,0,0);stroke-width:0.9;fill:none;"
     y1="780"
     y2="783"
     x1="1000"
     x2="996"
     id="line83" />
  <line
     transform="translate(-26,-48)"
     style="stroke:rgb(255,0,0);stroke-width:0.9;fill:none;"
     y1="780"
     y2="780"
     x1="294"
     x2="1000"
     id="line85" />
  <line
     transform="translate(-26,-48)"
     style="stroke:rgb(255,0,0);stroke-width:0.9;fill:none;"
     y1="398"
     y2="395"
     x1="558"
     x2="554"
     id="line87" />
  <line
     transform="translate(-26,-48)"
     style="stroke:rgb(255,0,0);stroke-width:0.9;fill:none;"
     y1="398"
     y2="401"
     x1="558"
     x2="554"
     id="line89" />
  <line
     transform="translate(-26,-48)"
     style="stroke:rgb(255,0,0);stroke-width:0.9;fill:none;"
     y1="398"
     y2="398"
     x1="294"
     x2="558"
     id="line91" />
  <line
     transform="translate(-26,-48)"
     style="stroke:rgb(255,0,0);stroke-width:0.9;fill:none;"
     y1="652"
     y2="652"
     x1="294"
     x2="341"
     id="line93" />
  <line
     transform="translate(-26,-48)"
     style="stroke:rgb(255,0,0);stroke-width:0.9;fill:none;"
     y1="652"
     y2="680"
     x1="341"
     x2="341"
     id="line95" />
  <line
     transform="translate(-26,-48)"
     style="stroke:rgb(255,0,0);stroke-width:0.9;fill:none;"
     y1="680"
     y2="677"
     x1="294"
     x2="298"
     id="line97" />
  <line
     transform="translate(-26,-48)"
     style="stroke:rgb(255,0,0);stroke-width:0.9;fill:none;"
     y1="680"
     y2="683"
     x1="294"
     x2="298"
     id="line99" />
  <line
     transform="translate(-26,-48)"
     style="stroke:rgb(255,0,0);stroke-width:0.9;fill:none;"
     y1="680"
     y2="680"
     x1="294"
     x2="341"
     id="line101" />
  <line
     transform="translate(-26,-48)"
     style="stroke:rgb(255,0,0);stroke-width:0.9;fill:none;"
     y1="149"
     y2="149"
     x1="301"
     x2="341"
     id="line103" />
  <line
     transform="translate(-26,-48)"
     style="stroke:rgb(255,0,0);stroke-width:0.9;fill:none;"
     y1="149"
     y2="174"
     x1="341"
     x2="341"
     id="line105" />
  <line
     transform="translate(-26,-48)"
     style="stroke:rgb(255,0,0);stroke-width:0.9;fill:none;"
     y1="174"
     y2="171"
     x1="301"
     x2="305"
     id="line107" />
  <line
     transform="translate(-26,-48)"
     style="stroke:rgb(255,0,0);stroke-width:0.9;fill:none;"
     y1="174"
     y2="177"
     x1="301"
     x2="305"
     id="line109" />
  <line
     transform="translate(-26,-48)"
     style="stroke:rgb(255,0,0);stroke-width:0.9;fill:none;"
     y1="174"
     y2="174"
     x1="301"
     x2="341"
     id="line111" />
  <line
     transform="translate(-26,-48)"
     style="stroke:rgb(255,0,0);stroke-width:0.9;fill:none;"
     y1="589"
     y2="586"
     x1="561"
     x2="565"
     id="line113" />
  <line
     transform="translate(-26,-48)"
     style="stroke:rgb(255,0,0);stroke-width:0.9;fill:none;"
     y1="589"
     y2="592"
     x1="561"
     x2="565"
     id="line115" />
  <line
     transform="translate(-26,-48)"
     style="stroke:rgb(255,0,0);stroke-width:0.9;fill:none;"
     y1="589"
     y2="589"
     x1="561"
     x2="848"
     id="line117" />
  <line
     transform="translate(-26,-48)"
     style="stroke:rgb(255,0,0);stroke-width:0.9;fill:none;"
     y1="746"
     y2="743"
     x1="721"
     x2="717"
     id="line119" />
  <line
     transform="translate(-26,-48)"
     style="stroke:rgb(255,0,0);stroke-width:0.9;fill:none;"
     y1="746"
     y2="749"
     x1="721"
     x2="717"
     id="line121" />
  <line
     transform="translate(-26,-48)"
     style="stroke:rgb(255,0,0);stroke-width:0.9;fill:none;"
     y1="746"
     y2="746"
     x1="294"
     x2="721"
     id="line123" />
  <line
     transform="translate(-26,-48)"
     style="stroke:rgb(255,0,0);stroke-width:0.9;fill:none;"
     y1="712"
     y2="709"
     x1="1000"
     x2="996"
     id="line125" />
  <line
     transform="translate(-26,-48)"
     style="stroke:rgb(255,0,0);stroke-width:0.9;fill:none;"
     y1="712"
     y2="715"
     x1="1000"
     x2="996"
     id="line127" />
  <line
     transform="translate(-26,-48)"
     style="stroke:rgb(255,0,0);stroke-width:0.9;fill:none;"
     y1="712"
     y2="712"
     x1="294"
     x2="1000"
     id="line129" />
  <rect
     width="161"
     x="26"
     y="48"
     height="29"
     transform="translate(-26,-48)"
     style="stroke:rgb(255,0,0);stroke-width:0.9;fill:rgb(255,255,192);"
     id="rect131" />
  <text
     x="106"
     y="69"
     transform="translate(-26,-48)"
     style="fill:rgb(0,0,0);stroke-width:0;font-size:11;font-style:normal;font-weight:400;font-family:DejaVu Sans;"
     text-anchor="middle"
     id="text133"> : FieldActionWindow</text>
  <rect
     width="142"
     x="222"
     y="48"
     height="29"
     transform="translate(-26,-48)"
     style="stroke:rgb(255,0,0);stroke-width:0.9;fill:rgb(255,255,192);"
     id="rect135" />
  <text
     x="293"
     y="69"
     transform="translate(-26,-48)"
     style="fill:rgb(0,0,0);stroke-width:0;font-size:11;font-style:normal;font-weight:400;font-family:DejaVu Sans;"
     text-anchor="middle"
     id="text137"> : AttackController</text>
  <rect
     width="69"
     x="393"
     y="48"
     height="29"
     transform="translate(-26,-48)"
     style="stroke:rgb(255,0,0);stroke-width:0.9;fill:rgb(255,255,192);"
     id="rect139" />
  <text
     x="427"
     y="69"
     transform="translate(-26,-48)"
     style="fill:rgb(0,0,0);stroke-width:0;font-size:11;font-style:normal;font-weight:400;font-family:DejaVu Sans;"
     text-anchor="middle"
     id="text141"> : Player</text>
  <rect
     width="136"
     x="492"
     y="48"
     height="29"
     transform="translate(-26,-48)"
     style="stroke:rgb(255,0,0);stroke-width:0.9;fill:rgb(255,255,192);"
     id="rect143" />
  <text
     x="560"
     y="69"
     transform="translate(-26,-48)"
     style="fill:rgb(0,0,0);stroke-width:0;font-size:11;font-style:normal;font-weight:400;font-family:DejaVu Sans;"
     text-anchor="middle"
     id="text145">Attacker : Soldier</text>
  <rect
     width="141"
     x="653"
     y="48"
     height="29"
     transform="translate(-26,-48)"
     style="stroke:rgb(255,0,0);stroke-width:0.9;fill:rgb(255,255,192);"
     id="rect147" />
  <text
     x="723"
     y="69"
     transform="translate(-26,-48)"
     style="fill:rgb(0,0,0);stroke-width:0;font-size:11;font-style:normal;font-weight:400;font-family:DejaVu Sans;"
     text-anchor="middle"
     id="text149">Defender : Soldier</text>
  <rect
     width="68"
     x="816"
     y="48"
     height="29"
     transform="translate(-26,-48)"
     style="stroke:rgb(255,0,0);stroke-width:0.9;fill:rgb(255,255,192);"
     id="rect151" />
  <text
     x="850"
     y="69"
     transform="translate(-26,-48)"
     style="fill:rgb(0,0,0);stroke-width:0;font-size:11;font-style:normal;font-weight:400;font-family:DejaVu Sans;"
     text-anchor="middle"
     id="text153"> : Battle</text>
  <rect
     width="169"
     x="918"
     y="48"
     height="29"
     transform="translate(-26,-48)"
     style="stroke:rgb(255,0,0);stroke-width:0.9;fill:rgb(255,255,192);"
     id="rect155" />
  <text
     x="1002"
     y="69"
     transform="translate(-26,-48)"
     style="fill:rgb(0,0,0);stroke-width:0;font-size:11;font-style:normal;font-weight:400;font-family:DejaVu Sans;"
     text-anchor="middle"
     id="text157">Attacked : MilitarySite</text>
  <text
     x="205"
     y="142"
     transform="translate(-26,-48)"
     style="fill:rgb(50,50,50);stroke-width:0;font-size:11;font-style:normal;font-weight:400;font-family:DejaVu Sans;"
     text-anchor="middle"
     id="text159">1: getMaxAttackSoldiers</text>
  <text
     x="173"
     y="229"
     transform="translate(-26,-48)"
     style="fill:rgb(50,50,50);stroke-width:0;font-size:11;font-style:normal;font-weight:400;font-family:DejaVu Sans;"
     text-anchor="middle"
     id="text161">3: launchAttack</text>
  <text
     x="366"
     y="269"
     transform="translate(-26,-48)"
     style="fill:rgb(50,50,50);stroke-width:0;font-size:11;font-style:normal;font-weight:400;font-family:DejaVu Sans;"
     text-anchor="middle"
     id="text163">4: launchAttack()</text>
  <text
     x="496"
     y="318"
     transform="translate(-26,-48)"
     style="fill:rgb(50,50,50);stroke-width:0;font-size:11;font-style:normal;font-weight:400;font-family:DejaVu Sans;"
     text-anchor="middle"
     id="text165">5: moveToFlag</text>
  <text
     x="496"
     y="350"
     transform="translate(-26,-48)"
     style="fill:rgb(50,50,50);stroke-width:0;font-size:11;font-style:normal;font-weight:400;font-family:DejaVu Sans;"
     text-anchor="middle"
     id="text167">6: flagReached</text>
  <text
     x="358"
     y="442"
     transform="translate(-26,-48)"
     style="fill:rgb(50,50,50);stroke-width:0;font-size:11;font-style:normal;font-weight:400;font-family:DejaVu Sans;"
     text-anchor="middle"
     id="text169">8: moveToFlag</text>
  <text
     x="357"
     y="476"
     transform="translate(-26,-48)"
     style="fill:rgb(50,50,50);stroke-width:0;font-size:11;font-style:normal;font-weight:400;font-family:DejaVu Sans;"
     text-anchor="middle"
     id="text171">9: flagReached</text>
  <text
     x="357"
     y="538"
     transform="translate(-26,-48)"
     style="fill:rgb(50,50,50);stroke-width:0;font-size:11;font-style:normal;font-weight:400;font-family:DejaVu Sans;"
     text-anchor="middle"
     id="text173">10: startBattle</text>
  <text
     x="371"
     y="601"
     transform="translate(-26,-48)"
     style="fill:rgb(50,50,50);stroke-width:0;font-size:11;font-style:normal;font-weight:400;font-family:DejaVu Sans;"
     text-anchor="middle"
     id="text175">12: battleFinished</text>
  <text
     x="375"
     y="771"
     transform="translate(-26,-48)"
     style="fill:rgb(50,50,50);stroke-width:0;font-size:11;font-style:normal;font-weight:400;font-family:DejaVu Sans;"
     text-anchor="middle"
     id="text177">16: requestSoldiers</text>
  <text
     x="376"
     y="389"
     transform="translate(-26,-48)"
     style="fill:rgb(50,50,50);stroke-width:0;font-size:11;font-style:normal;font-weight:400;font-family:DejaVu Sans;"
     text-anchor="middle"
     id="text179">7: waitForOpponent</text>
  <text
     x="368"
     y="647"
     transform="translate(-26,-48)"
     style="fill:rgb(50,50,50);stroke-width:0;font-size:11;font-style:normal;font-weight:400;font-family:DejaVu Sans;"
     text-anchor="middle"
     id="text181">13: defendersLeft</text>
  <text
     x="388"
     y="144"
     transform="translate(-26,-48)"
     style="fill:rgb(50,50,50);stroke-width:0;font-size:11;font-style:normal;font-weight:400;font-family:DejaVu Sans;"
     text-anchor="middle"
     id="text183">2: getCloseMilitarySites</text>
  <text
     x="595"
     y="580"
     transform="translate(-26,-48)"
     style="font-size:11px;font-style:normal;font-weight:400;text-anchor:middle;fill:#323232;stroke-width:0;font-family:DejaVu Sans"
     id="text185">11: die</text>
  <text
     x="375"
     y="737"
     transform="translate(-26,-48)"
     style="fill:rgb(50,50,50);stroke-width:0;font-size:11;font-style:normal;font-weight:400;font-family:DejaVu Sans;"
     text-anchor="middle"
     id="text187">15: enterBuilding</text>
  <text
     x="375"
     y="703"
     transform="translate(-26,-48)"
     style="fill:rgb(50,50,50);stroke-width:0;font-size:11;font-style:normal;font-weight:400;font-family:DejaVu Sans;"
     text-anchor="middle"
     id="text189">14: conquerBuilding</text>
</svg>
